# xmcd CD database file
#
# Track frame offsets:
#	150
#	21275
#	37130
#	60420
#	74944
#	100518
#
# Disc length: 1606 seconds
#
# Revision: 0
# Processed by: cddbd v1.5.1PL0 Copyright (c) Steve Scherf et al.
# Submitted via: CDex 1.51
#
DISCID=51064406
DTITLE=FREEZER NOIZE - サンセット・ステップ
DYEAR=1900
DGENRE=Rock
TTITLE0=アウト
TTITLE1=ムーン
TTITLE2=ハローウェイクアップ
TTITLE3=オン
TTITLE4=スターツ
TTITLE5=オレンジ
EXTD=
EXTT0=
EXTT1=
EXTT2=
EXTT3=
EXTT4=
EXTT5=
PLAYORDER=
